<?xml version="1.0" encoding="UTF-8"?>
<svg id="Layer_2" data-name="Layer 2" xmlns="http://www.w3.org/2000/svg" viewBox="0 0 877.87 867.51">
  <defs>
    <style>
      .cls-1 {
        fill: #fff;
        stroke-width: 9px;
      }

      .cls-1, .cls-2, .cls-3, .cls-4, .cls-5, .cls-6 {
        stroke: #000;
        stroke-miterlimit: 10;
      }

      .cls-2 {
        stroke-width: 31px;
      }

      .cls-2, .cls-3, .cls-4 {
        fill: none;
      }

      .cls-3, .cls-5 {
        stroke-width: 20px;
      }

      .cls-4, .cls-6 {
        stroke-width: 6px;
      }

      .cls-5 {
        fill: #000;
      }

      .cls-6 {
        fill: #000;
      }
    </style>
  </defs>
  <polyline class="cls-3" points="522.68 103.25 652.27 29.72 738.17 109.86 738.17 220.16 650.65 274.03"/>
  <polyline class="cls-3" points="739.19 156.36 867.87 260.53 867.87 384.1 734.09 452.53"/>
  <polyline class="cls-3" points="771.87 437.21 856.64 523.29 856.64 619.87 708.55 700.7"/>
  <polyline class="cls-3" points="643.19 609.8 704.47 657.8 704.47 785.46 625.83 841.63 526.77 800.78 526.77 96.89"/>
  <polyline class="cls-3" points="257.15 848.78 344.98 787.51 344.98 96.89 228.55 12.36 112.13 96.89 112.13 188.02 10 233.98 10 400.44 70.68 431.08 113.15 452.53"/>
  <polyline class="cls-3" points="64.13 430.57 10 480.73 10 663.59 177.49 769.12"/>
  <polyline class="cls-3" points="312.3 80.78 218.34 156.36 218.34 266.66 93.74 266.66 93.74 324.87"/>
  <polyline class="cls-3" points="341.4 671.08 197.14 671.08 197.14 615.93 97.83 615.93"/>
  <line class="cls-2" x1="213.23" y1="361.63" x2="213.23" y2="536.27"/>
  <line class="cls-2" x1="344.98" y1="310.57" x2="344.98" y2="531.68"/>
  <line class="cls-2" x1="526.77" y1="352.95" x2="526.77" y2="585.8"/>
  <line class="cls-2" x1="216.81" y1="448.95" x2="341.4" y2="448.95"/>
  <polyline class="cls-2" points="522.68 344.82 586.29 412.28 647.53 347.34 647.53 536.27"/>
  <line class="cls-3" x1="480.81" y1="316.7" x2="344.98" y2="316.7"/>
  <line class="cls-3" x1="393.49" y1="579.17" x2="526.77" y2="579.17"/>
  <rect class="cls-1" x="611.05" y="147.67" width="21.37" height="21.37" rx="10.69" ry="10.69"/>
  <rect class="cls-1" x="609.05" y="730.86" width="21.37" height="21.37" rx="10.69" ry="10.69"/>
  <rect class="cls-4" x="239.31" y="841.63" width="21.37" height="21.37" rx="10.69" ry="10.69"/>
  <rect class="cls-4" x="177.49" y="765.59" width="21.37" height="21.37" rx="10.69" ry="10.69"/>
  <rect class="cls-4" x="177.49" y="765.59" width="21.37" height="21.37" rx="10.69" ry="10.69"/>
  <rect class="cls-1" x="239.31" y="841.63" width="21.37" height="21.37" rx="10.69" ry="10.69"/>
  <rect class="cls-1" x="177.49" y="765.59" width="21.37" height="21.37" rx="10.69" ry="10.69"/>
  <rect class="cls-1" x="75.62" y="605.25" width="21.37" height="21.37" rx="10.69" ry="10.69"/>
  <rect class="cls-5" x="203.02" y="536.27" width="21.37" height="21.37" rx="10.69" ry="10.69"/>
  <rect class="cls-5" x="203.02" y="340.26" width="21.37" height="21.37" rx="10.69" ry="10.69"/>
  <rect class="cls-5" x="636.85" y="536.27" width="21.37" height="21.37" rx="10.69" ry="10.69"/>
  <rect class="cls-1" x="83.06" y="323.45" width="21.37" height="21.37" rx="10.69" ry="10.69"/>
  <polygon class="cls-6" points="380.72 380.53 380.72 493.89 417.83 493.89 417.83 409.12 454.77 409.12 454.77 430.57 430.77 430.57 430.77 456.61 454.77 456.61 454.77 493.89 491.53 493.89 491.53 380.53 380.72 380.53"/>
  <line class="cls-5" x1="531.87" y1="217.12" x2="613.06" y2="164.02"/>
  <line class="cls-5" x1="531.87" y1="671.08" x2="613.06" y2="735.68"/>
</svg>